<mxfile host="app.diagrams.net" agent="Mozilla/5.0 (Windows NT 10.0; Win64; x64) AppleWebKit/537.36 (KHTML, like Gecko) Chrome/131.0.0.0 Safari/537.36" version="24.8.6">
  <diagram name="Page-1" id="eWnVtFPMklx-EO2fsteF">
    <mxGraphModel dx="1235" dy="768" grid="1" gridSize="10" guides="1" tooltips="1" connect="1" arrows="1" fold="1" page="1" pageScale="1" pageWidth="850" pageHeight="1100" math="0" shadow="0">
      <root>
        <mxCell id="0" />
        <mxCell id="1" parent="0" />
        <mxCell id="JtP1xpn-msapYcgLWKKq-5" value="" style="edgeStyle=orthogonalEdgeStyle;rounded=0;orthogonalLoop=1;jettySize=auto;html=1;" edge="1" parent="1" target="JtP1xpn-msapYcgLWKKq-4">
          <mxGeometry relative="1" as="geometry">
            <mxPoint x="400" y="70" as="sourcePoint" />
          </mxGeometry>
        </mxCell>
        <mxCell id="JtP1xpn-msapYcgLWKKq-7" value="&lt;b&gt;&lt;font style=&quot;font-size: 13px;&quot; face=&quot;Times New Roman&quot;&gt;USER CHOOSES&lt;/font&gt;&lt;/b&gt;" style="edgeStyle=orthogonalEdgeStyle;rounded=0;orthogonalLoop=1;jettySize=auto;html=1;" edge="1" parent="1" source="JtP1xpn-msapYcgLWKKq-4" target="JtP1xpn-msapYcgLWKKq-6">
          <mxGeometry relative="1" as="geometry" />
        </mxCell>
        <mxCell id="JtP1xpn-msapYcgLWKKq-11" value="" style="edgeStyle=orthogonalEdgeStyle;rounded=0;orthogonalLoop=1;jettySize=auto;html=1;" edge="1" parent="1" source="JtP1xpn-msapYcgLWKKq-4" target="JtP1xpn-msapYcgLWKKq-10">
          <mxGeometry relative="1" as="geometry" />
        </mxCell>
        <mxCell id="JtP1xpn-msapYcgLWKKq-4" value="&lt;b&gt;&lt;font face=&quot;Times New Roman&quot; style=&quot;font-size: 16px;&quot;&gt;HOME PAGE&lt;/font&gt;&lt;/b&gt;" style="rounded=1;whiteSpace=wrap;html=1;fillColor=#d5e8d4;strokeColor=#82b366;" vertex="1" parent="1">
          <mxGeometry x="340" y="120" width="120" height="60" as="geometry" />
        </mxCell>
        <mxCell id="JtP1xpn-msapYcgLWKKq-6" value="&lt;b&gt;&lt;font face=&quot;Times New Roman&quot; style=&quot;font-size: 16px;&quot;&gt;SIGN UP / LOGIN&lt;/font&gt;&lt;/b&gt;" style="rounded=1;whiteSpace=wrap;html=1;fillColor=#e1d5e7;strokeColor=#9673a6;" vertex="1" parent="1">
          <mxGeometry x="600" y="120" width="120" height="60" as="geometry" />
        </mxCell>
        <mxCell id="JtP1xpn-msapYcgLWKKq-10" value="&lt;font size=&quot;1&quot; face=&quot;Times New Roman&quot;&gt;&lt;b style=&quot;font-size: 16px;&quot;&gt;USER DASHBOARD&lt;/b&gt;&lt;/font&gt;" style="whiteSpace=wrap;html=1;rounded=1;fillColor=#d5e8d4;strokeColor=#82b366;" vertex="1" parent="1">
          <mxGeometry x="340" y="220" width="120" height="60" as="geometry" />
        </mxCell>
        <mxCell id="JtP1xpn-msapYcgLWKKq-16" value="" style="endArrow=classic;html=1;rounded=0;" edge="1" parent="1">
          <mxGeometry width="50" height="50" relative="1" as="geometry">
            <mxPoint x="400" y="320" as="sourcePoint" />
            <mxPoint x="500" y="320" as="targetPoint" />
          </mxGeometry>
        </mxCell>
        <mxCell id="JtP1xpn-msapYcgLWKKq-18" value="&lt;font size=&quot;1&quot; face=&quot;Times New Roman&quot;&gt;&lt;b style=&quot;font-size: 16px;&quot;&gt;WORKOUT MNAGEMENT&lt;/b&gt;&lt;/font&gt;" style="rounded=1;whiteSpace=wrap;html=1;fillColor=#e1d5e7;strokeColor=#9673a6;" vertex="1" parent="1">
          <mxGeometry x="500" y="290" width="130" height="60" as="geometry" />
        </mxCell>
        <mxCell id="JtP1xpn-msapYcgLWKKq-20" value="&lt;b&gt;&lt;font face=&quot;Times New Roman&quot; style=&quot;font-size: 13px;&quot;&gt;ANALYZE FITNESS GOALS&amp;nbsp;&lt;/font&gt;&lt;/b&gt;" style="endArrow=classic;html=1;rounded=0;align=right;" edge="1" parent="1">
          <mxGeometry x="1" y="180" width="50" height="50" relative="1" as="geometry">
            <mxPoint x="560" y="380" as="sourcePoint" />
            <mxPoint x="600" y="380" as="targetPoint" />
            <mxPoint x="180" y="180" as="offset" />
          </mxGeometry>
        </mxCell>
        <mxCell id="JtP1xpn-msapYcgLWKKq-21" value="&lt;b&gt;&lt;font style=&quot;font-size: 13px;&quot; face=&quot;Times New Roman&quot;&gt;RECOMMEND TRAINING PLANS&amp;nbsp;&lt;/font&gt;&lt;/b&gt;" style="endArrow=classic;html=1;rounded=0;" edge="1" parent="1">
          <mxGeometry x="1" y="110" width="50" height="50" relative="1" as="geometry">
            <mxPoint x="560" y="400" as="sourcePoint" />
            <mxPoint x="600" y="400" as="targetPoint" />
            <mxPoint x="110" y="110" as="offset" />
          </mxGeometry>
        </mxCell>
        <mxCell id="JtP1xpn-msapYcgLWKKq-22" value="&lt;b&gt;&lt;font style=&quot;font-size: 13px;&quot; face=&quot;Times New Roman&quot;&gt;CHOOSE PLANS&lt;/font&gt;&lt;/b&gt;" style="endArrow=classic;html=1;rounded=0;" edge="1" parent="1">
          <mxGeometry x="1" y="60" width="50" height="50" relative="1" as="geometry">
            <mxPoint x="560" y="420" as="sourcePoint" />
            <mxPoint x="600" y="420" as="targetPoint" />
            <mxPoint x="60" y="60" as="offset" />
          </mxGeometry>
        </mxCell>
        <mxCell id="JtP1xpn-msapYcgLWKKq-23" value="&lt;font size=&quot;1&quot; face=&quot;Times New Roman&quot;&gt;&lt;b style=&quot;font-size: 13px;&quot;&gt;ACCESS VIDEO TUTORIALS&lt;/b&gt;&lt;/font&gt;" style="endArrow=classic;html=1;rounded=0;" edge="1" parent="1">
          <mxGeometry x="1" y="100" width="50" height="50" relative="1" as="geometry">
            <mxPoint x="560" y="440" as="sourcePoint" />
            <mxPoint x="600" y="440" as="targetPoint" />
            <mxPoint x="100" y="100" as="offset" />
          </mxGeometry>
        </mxCell>
        <mxCell id="JtP1xpn-msapYcgLWKKq-24" value="&lt;b&gt;&lt;font style=&quot;font-size: 13px;&quot; face=&quot;Times New Roman&quot;&gt;TRACK PROGRESS&lt;/font&gt;&lt;/b&gt;" style="endArrow=classic;html=1;rounded=0;" edge="1" parent="1">
          <mxGeometry x="1" y="70" width="50" height="50" relative="1" as="geometry">
            <mxPoint x="560" y="460" as="sourcePoint" />
            <mxPoint x="600" y="460" as="targetPoint" />
            <mxPoint x="70" y="70" as="offset" />
          </mxGeometry>
        </mxCell>
        <mxCell id="JtP1xpn-msapYcgLWKKq-25" value="" style="endArrow=classic;html=1;rounded=0;" edge="1" parent="1">
          <mxGeometry width="50" height="50" relative="1" as="geometry">
            <mxPoint x="400" y="520" as="sourcePoint" />
            <mxPoint x="500" y="520" as="targetPoint" />
          </mxGeometry>
        </mxCell>
        <mxCell id="JtP1xpn-msapYcgLWKKq-26" value="&lt;font size=&quot;1&quot; face=&quot;Times New Roman&quot;&gt;&lt;b style=&quot;font-size: 16px;&quot;&gt;NUTRITIONAL GUIDANCE&amp;nbsp;&lt;/b&gt;&lt;/font&gt;" style="rounded=1;whiteSpace=wrap;html=1;fillColor=#e1d5e7;strokeColor=#9673a6;" vertex="1" parent="1">
          <mxGeometry x="500" y="490" width="130" height="60" as="geometry" />
        </mxCell>
        <mxCell id="JtP1xpn-msapYcgLWKKq-27" value="" style="endArrow=none;html=1;rounded=0;entryX=0.5;entryY=1;entryDx=0;entryDy=0;" edge="1" parent="1">
          <mxGeometry width="50" height="50" relative="1" as="geometry">
            <mxPoint x="559.5" y="660" as="sourcePoint" />
            <mxPoint x="559.5" y="550" as="targetPoint" />
            <Array as="points">
              <mxPoint x="559.5" y="590" />
            </Array>
          </mxGeometry>
        </mxCell>
        <mxCell id="JtP1xpn-msapYcgLWKKq-28" value="&lt;font size=&quot;1&quot; face=&quot;Times New Roman&quot;&gt;&lt;b style=&quot;font-size: 13px;&quot;&gt;MEAL PLAN CREATION&amp;nbsp;&lt;/b&gt;&lt;/font&gt;" style="endArrow=classic;html=1;rounded=0;align=right;" edge="1" parent="1">
          <mxGeometry x="1" y="160" width="50" height="50" relative="1" as="geometry">
            <mxPoint x="560" y="580" as="sourcePoint" />
            <mxPoint x="600" y="580" as="targetPoint" />
            <mxPoint x="160" y="160" as="offset" />
          </mxGeometry>
        </mxCell>
        <mxCell id="JtP1xpn-msapYcgLWKKq-29" value="&lt;font style=&quot;font-size: 13px;&quot; face=&quot;Times New Roman&quot;&gt;&lt;b style=&quot;&quot;&gt;MACRO TRACKER&amp;nbsp;&lt;/b&gt;&lt;/font&gt;&lt;div style=&quot;font-size: 13px;&quot;&gt;&lt;font style=&quot;font-size: 13px;&quot; face=&quot;Times New Roman&quot;&gt;&lt;b style=&quot;&quot;&gt;(TRACK FAT/ PROTEINS/ CARBS)&lt;/b&gt;&lt;/font&gt;&lt;/div&gt;" style="endArrow=classic;html=1;rounded=0;align=left;" edge="1" parent="1">
          <mxGeometry x="1" y="-14" width="50" height="50" relative="1" as="geometry">
            <mxPoint x="560" y="660" as="sourcePoint" />
            <mxPoint x="600" y="660" as="targetPoint" />
            <mxPoint x="10" y="-4" as="offset" />
          </mxGeometry>
        </mxCell>
        <mxCell id="JtP1xpn-msapYcgLWKKq-30" value="&lt;font size=&quot;1&quot; face=&quot;Times New Roman&quot;&gt;&lt;b style=&quot;font-size: 13px;&quot;&gt;SELECT PREFERENCES/ ALLERGIES&lt;/b&gt;&lt;/font&gt;" style="endArrow=classic;html=1;rounded=0;align=right;" edge="1" parent="1">
          <mxGeometry x="1" y="240" width="50" height="50" relative="1" as="geometry">
            <mxPoint x="560" y="600" as="sourcePoint" />
            <mxPoint x="600" y="600" as="targetPoint" />
            <mxPoint x="240" y="240" as="offset" />
          </mxGeometry>
        </mxCell>
        <mxCell id="JtP1xpn-msapYcgLWKKq-31" value="&lt;font size=&quot;1&quot; face=&quot;Times New Roman&quot;&gt;&lt;b style=&quot;font-size: 13px;&quot;&gt;FOOD DATABASE ACCESS&lt;/b&gt;&lt;/font&gt;" style="endArrow=classic;html=1;rounded=0;align=right;" edge="1" parent="1">
          <mxGeometry x="1" y="170" width="50" height="50" relative="1" as="geometry">
            <mxPoint x="560" y="620" as="sourcePoint" />
            <mxPoint x="600" y="620" as="targetPoint" />
            <mxPoint x="170" y="170" as="offset" />
          </mxGeometry>
        </mxCell>
        <mxCell id="JtP1xpn-msapYcgLWKKq-32" value="&lt;font size=&quot;1&quot; face=&quot;Times New Roman&quot;&gt;&lt;b style=&quot;font-size: 13px;&quot;&gt;INGREDIENT SWAPPING&lt;/b&gt;&lt;/font&gt;" style="endArrow=classic;html=1;rounded=0;align=right;" edge="1" parent="1">
          <mxGeometry x="1" y="160" width="50" height="50" relative="1" as="geometry">
            <mxPoint x="560" y="640" as="sourcePoint" />
            <mxPoint x="600" y="640" as="targetPoint" />
            <mxPoint x="160" y="160" as="offset" />
          </mxGeometry>
        </mxCell>
        <mxCell id="JtP1xpn-msapYcgLWKKq-33" value="" style="endArrow=classic;html=1;rounded=0;" edge="1" parent="1">
          <mxGeometry width="50" height="50" relative="1" as="geometry">
            <mxPoint x="400" y="720" as="sourcePoint" />
            <mxPoint x="500" y="720" as="targetPoint" />
          </mxGeometry>
        </mxCell>
        <mxCell id="JtP1xpn-msapYcgLWKKq-34" value="&lt;font size=&quot;1&quot; face=&quot;Times New Roman&quot;&gt;&lt;b style=&quot;font-size: 16px;&quot;&gt;HEALTH CALCULATORS&amp;nbsp;&lt;/b&gt;&lt;/font&gt;" style="rounded=1;whiteSpace=wrap;html=1;fillColor=#e1d5e7;strokeColor=#9673a6;" vertex="1" parent="1">
          <mxGeometry x="500" y="690" width="130" height="60" as="geometry" />
        </mxCell>
        <mxCell id="JtP1xpn-msapYcgLWKKq-35" value="" style="endArrow=none;html=1;rounded=0;entryX=0.5;entryY=1;entryDx=0;entryDy=0;" edge="1" parent="1">
          <mxGeometry width="50" height="50" relative="1" as="geometry">
            <mxPoint x="560" y="810" as="sourcePoint" />
            <mxPoint x="559.5" y="750" as="targetPoint" />
            <Array as="points">
              <mxPoint x="559.5" y="790" />
            </Array>
          </mxGeometry>
        </mxCell>
        <mxCell id="JtP1xpn-msapYcgLWKKq-36" value="&lt;font size=&quot;1&quot; face=&quot;Times New Roman&quot;&gt;&lt;b style=&quot;font-size: 13px;&quot;&gt;BMI CALCULATOR&lt;/b&gt;&lt;/font&gt;" style="endArrow=classic;html=1;rounded=0;align=left;" edge="1" parent="1">
          <mxGeometry x="1" y="10" width="50" height="50" relative="1" as="geometry">
            <mxPoint x="560" y="780" as="sourcePoint" />
            <mxPoint x="600" y="780" as="targetPoint" />
            <mxPoint x="10" y="10" as="offset" />
          </mxGeometry>
        </mxCell>
        <mxCell id="JtP1xpn-msapYcgLWKKq-37" value="&lt;font style=&quot;font-size: 13px;&quot; face=&quot;Times New Roman&quot;&gt;&lt;b style=&quot;&quot;&gt;BMR CALCALCULATOR&amp;nbsp;&lt;/b&gt;&lt;/font&gt;&lt;div style=&quot;font-size: 13px;&quot;&gt;&lt;font style=&quot;font-size: 13px;&quot; face=&quot;Times New Roman&quot;&gt;&lt;b style=&quot;&quot;&gt;(CALCULATE CALORIC NEEDS)&lt;/b&gt;&lt;/font&gt;&lt;/div&gt;" style="endArrow=classic;html=1;rounded=0;align=left;" edge="1" parent="1">
          <mxGeometry x="1" y="10" width="50" height="50" relative="1" as="geometry">
            <mxPoint x="560" y="810" as="sourcePoint" />
            <mxPoint x="600" y="810" as="targetPoint" />
            <mxPoint x="10" y="10" as="offset" />
          </mxGeometry>
        </mxCell>
        <mxCell id="JtP1xpn-msapYcgLWKKq-41" value="&lt;font size=&quot;1&quot; face=&quot;Times New Roman&quot;&gt;&lt;b style=&quot;font-size: 16px;&quot;&gt;START&amp;nbsp;&lt;/b&gt;&lt;/font&gt;" style="ellipse;whiteSpace=wrap;html=1;fillColor=#f8cecc;strokeColor=#b85450;" vertex="1" parent="1">
          <mxGeometry x="320" y="20" width="160" height="60" as="geometry" />
        </mxCell>
        <mxCell id="JtP1xpn-msapYcgLWKKq-42" value="" style="edgeStyle=orthogonalEdgeStyle;rounded=0;orthogonalLoop=1;jettySize=auto;html=1;" edge="1" parent="1" source="JtP1xpn-msapYcgLWKKq-10" target="JtP1xpn-msapYcgLWKKq-40">
          <mxGeometry relative="1" as="geometry">
            <mxPoint x="400" y="280" as="sourcePoint" />
            <mxPoint x="400" y="968" as="targetPoint" />
          </mxGeometry>
        </mxCell>
        <mxCell id="JtP1xpn-msapYcgLWKKq-40" value="&lt;b&gt;&lt;font style=&quot;font-size: 16px;&quot; face=&quot;Times New Roman&quot;&gt;END&amp;nbsp;&lt;/font&gt;&lt;/b&gt;" style="ellipse;whiteSpace=wrap;html=1;fillColor=#f8cecc;strokeColor=#b85450;" vertex="1" parent="1">
          <mxGeometry x="320" y="820" width="160" height="70" as="geometry" />
        </mxCell>
        <mxCell id="JtP1xpn-msapYcgLWKKq-43" value="" style="endArrow=none;html=1;rounded=0;entryX=0.446;entryY=1.025;entryDx=0;entryDy=0;entryPerimeter=0;" edge="1" parent="1" target="JtP1xpn-msapYcgLWKKq-18">
          <mxGeometry width="50" height="50" relative="1" as="geometry">
            <mxPoint x="558" y="460" as="sourcePoint" />
            <mxPoint x="460" y="560" as="targetPoint" />
          </mxGeometry>
        </mxCell>
      </root>
    </mxGraphModel>
  </diagram>
</mxfile>
